<?xml version="1.0" encoding="UTF-8"?>
<svg width="17px" height="18px" viewBox="0 0 17 18" version="1.1" xmlns="http://www.w3.org/2000/svg" xmlns:xlink="http://www.w3.org/1999/xlink">
    <!-- Generator: Sketch 56 (81588) - https://sketch.com -->
    <title>icon/backnforce</title>
    <desc>Created with Sketch.</desc>
    <g id="Symbols" stroke="none" stroke-width="1" fill="none" fill-rule="evenodd">
        <g id="icon/backnforce" transform="translate(-4.000000, -3.000000)" fill="#283593">
            <path d="M15.4238594,10.8828987 C15.0333351,11.273423 15.0333351,11.906588 15.4238594,12.2971123 C15.8143837,12.6876365 16.4475487,12.6876365 16.838073,12.2971123 L20.6330757,8.50210952 C21.0236,8.11158523 21.0236,7.47842025 20.6330757,7.08789595 L16.838073,3.29289322 C16.4475487,2.90236893 15.8143837,2.90236893 15.4238594,3.29289322 C15.0333351,3.68341751 15.0333351,4.31658249 15.4238594,4.70710678 L18.5117553,7.79500274 L15.4238594,10.8828987 Z" id="Path-2" fill-rule="nonzero"></path>
            <path d="M19.7874996,6.75502473 L5,6.75502473 C4.44771525,6.75502473 4,7.20273998 4,7.75502473 C4,8.30730948 4.44771525,8.75502473 5,8.75502473 L19.7874996,8.75502473 C20.3397844,8.75502473 20.7874996,8.30730948 20.7874996,7.75502473 C20.7874996,7.20273998 20.3397844,6.75502473 19.7874996,6.75502473 Z" id="Path-8" fill-rule="nonzero"></path>
            <g id="Group" stroke-width="1" fill-rule="evenodd" transform="translate(12.500000, 16.000000) scale(-1, 1) translate(-12.500000, -16.000000) translate(4.000000, 11.000000)">
                <path d="M11.4238594,7.88289869 C11.0333351,8.27342298 11.0333351,8.90658796 11.4238594,9.29711225 C11.8143837,9.68763654 12.4475487,9.68763654 12.838073,9.29711225 L16.6330757,5.50210952 C17.0236,5.11158523 17.0236,4.47842025 16.6330757,4.08789595 L12.838073,0.292893219 C12.4475487,-0.0976310729 11.8143837,-0.0976310729 11.4238594,0.292893219 C11.0333351,0.683417511 11.0333351,1.31658249 11.4238594,1.70710678 L14.5117553,4.79500274 L11.4238594,7.88289869 Z" id="Path-2" fill-rule="nonzero" transform="translate(14.028468, 4.795003) scale(1, -1) translate(-14.028468, -4.795003) "></path>
                <path d="M15.7874996,3.75502473 L1,3.75502473 C0.44771525,3.75502473 -1.77635684e-15,4.20273998 -1.77635684e-15,4.75502473 C-1.77635684e-15,5.30730948 0.44771525,5.75502473 1,5.75502473 L15.7874996,5.75502473 C16.3397844,5.75502473 16.7874996,5.30730948 16.7874996,4.75502473 C16.7874996,4.20273998 16.3397844,3.75502473 15.7874996,3.75502473 Z" id="Path-8" fill-rule="nonzero" transform="translate(8.393750, 4.755025) scale(1, -1) translate(-8.393750, -4.755025) "></path>
            </g>
        </g>
    </g>
</svg>