<?xml version="1.0" encoding="UTF-8"?>
<svg width="20px" height="22px" viewBox="0 0 20 22" version="1.1" xmlns="http://www.w3.org/2000/svg" xmlns:xlink="http://www.w3.org/1999/xlink">
    <!-- Generator: Sketch 56 (81588) - https://sketch.com -->
    <title>icon/calendar</title>
    <desc>Created with Sketch.</desc>
    <g id="Symbols" stroke="none" stroke-width="1" fill="none" fill-rule="evenodd">
        <g id="icon/calendar" transform="translate(-2.000000, -1.000000)" fill="#283493" fill-rule="nonzero">
            <path d="M5,3 L19,3 C20.6568542,3 22,4.34314575 22,6 L22,20 C22,21.6568542 20.6568542,23 19,23 L5,23 C3.34314575,23 2,21.6568542 2,20 L2,6 C2,4.34314575 3.34314575,3 5,3 Z M5,5 C4.44771525,5 4,5.44771525 4,6 L4,20 C4,20.5522847 4.44771525,21 5,21 L19,21 C19.5522847,21 20,20.5522847 20,20 L20,6 C20,5.44771525 19.5522847,5 19,5 L5,5 Z" id="Rectangle"></path>
            <polygon id="Rectangle" points="5.5 1.5 7.5 1.5 7.5 5.5 5.5 5.5"></polygon>
            <polygon id="Rectangle" points="16.5 1.5 18.5 1.5 18.5 5.5 16.5 5.5"></polygon>
            <polygon id="Rectangle" points="2.5 8.5 21.5 8.5 21.5 10.5 2.5 10.5"></polygon>
            <polygon id="Rectangle" points="5.5 12.5 9.5 12.5 9.5 14.5 5.5 14.5"></polygon>
        </g>
    </g>
</svg>