<?xml version="1.0" encoding="UTF-8"?>
<svg width="18px" height="19px" viewBox="0 0 18 19" version="1.1" xmlns="http://www.w3.org/2000/svg" xmlns:xlink="http://www.w3.org/1999/xlink">
    <!-- Generator: Sketch 56 (81588) - https://sketch.com -->
    <title>icon/plane_back</title>
    <desc>Created with Sketch.</desc>
    <g id="Symbols" stroke="none" stroke-width="1" fill="none" fill-rule="evenodd">
        <g id="icon/plane_back" transform="translate(-3.000000, -3.000000)" stroke="#283493" stroke-width="2">
            <g id="Symbol/plane_back">
                <path d="M9.57073956,17.1120131 C7.18479401,18.8814576 5.29655094,19.7415204 4.75935481,18.6494129 C4.31795726,17.7520617 5.06523265,16.2207337 6.48201524,14.4120965 C4.09387472,12.7097382 3.42910098,11.9440831 4.48769402,12.1151312 C5.43662272,12.2684738 6.55246759,12.5023018 7.83522865,12.8166152 C8.74930937,11.8073345 9.805219,10.7501983 10.9295271,9.69565352 C4.38508336,5.68431287 2.80522133,3.79180552 6.18994097,4.01813148 C9.37207722,4.2309113 12.2731409,5.02685909 14.8931321,6.40597485 C17.3861632,4.66714021 19.2159931,4.1134593 19.8281173,4.80700389 C20.3319608,5.37792925 19.6346612,6.93818054 18.141554,8.89728496 C19.2479463,11.9565105 19.8647244,15.3377824 19.9918883,19.0411008 C20.1308906,23.0891829 18.4848694,20.8632175 15.0538246,12.3632047 C14.6716831,12.7415743 14.2728223,13.1221796 13.8592552,13.502089 C12.9852252,14.3049871 12.1137452,15.0726278 11.2745636,15.7686587 C11.4889012,16.9404831 11.7105234,18.032175 11.9394303,19.0437344 C12.2021013,20.2045002 11.4125377,19.5605931 9.57073956,17.1120131 Z" id="Combined-Shape" transform="translate(12.000003, 12.500000) scale(-1, 1) rotate(-360.000000) translate(-12.000003, -12.500000) "></path>
            </g>
        </g>
    </g>
</svg>