<?xml version="1.0" encoding="UTF-8"?>
<svg width="19px" height="20px" viewBox="0 0 19 20" version="1.1" xmlns="http://www.w3.org/2000/svg" xmlns:xlink="http://www.w3.org/1999/xlink">
    <!-- Generator: Sketch 56 (81588) - https://sketch.com -->
    <title>icon/plane_to</title>
    <desc>Created with Sketch.</desc>
    <g id="Symbols" stroke="none" stroke-width="1" fill="none" fill-rule="evenodd">
        <g id="icon/plane_to" transform="translate(-2.000000, -3.000000)" stroke="#283493" stroke-width="2">
            <g id="Symbol/plane">
                <path d="M6.18233213,4.01813148 C9.35261954,4.23085744 12.2429519,5.02645618 14.8533291,6.40492769 C17.3371756,4.66684885 19.1598587,4.11363866 19.7697053,4.80699473 C20.3225872,5.43568325 19.4240677,7.26398793 17.6134817,9.50349359 C19.0396955,12.4123931 19.831789,15.641793 19.9902577,19.1917854 C20.1558746,22.9019092 18.2098138,20.9026642 14.1520756,13.1940504 L14.0685563,13.2726802 L13.8215526,13.502089 C12.9507169,14.3048393 12.0824215,15.0723452 11.246295,15.7682743 C11.4596363,16.9415188 11.6803879,18.0326549 11.908392,19.0437344 C12.1701554,20.2045194 11.3833023,19.5605718 9.54783246,17.1118915 C7.16993594,18.8816059 5.28852586,19.7414263 4.75324066,18.6494129 C4.35106118,17.8289431 4.93914926,16.4784758 6.12205054,14.8706352 C3.21947203,12.8476108 2.34081941,11.9294469 3.48599494,12.1151265 C4.53632134,12.2854486 5.7918541,12.5550626 7.25259323,12.9239685 L7.63492746,13.0214556 C8.53998253,12.0035275 9.59586319,10.9327348 10.7259751,9.86188134 L10.9028588,9.69405004 C4.38332022,5.68380853 2.80981133,3.79183568 6.18233213,4.01813148 Z" id="Path"></path>
            </g>
        </g>
    </g>
</svg>